<!-- Generator: Adobe Illustrator 23.0.1, SVG Export Plug-In -->
<svg version="1.1" xmlns="http://www.w3.org/2000/svg" xmlns:xlink="http://www.w3.org/1999/xlink" x="0px" y="0px" viewBox="0 0 149.1 30.3" style="enable-background:new 0 0 149.1 30.3;" xml:space="preserve">
	<style type="text/css">
		.st0{fill:#F4F4F4;stroke:#000000;stroke-miterlimit:10;}
	</style>
	<defs>
	</defs>
	<polygon class="st0" points="130.7,11.2 130.7,1.2 148.6,1.2 148.6,29.7 143.3,29.7 143.3,14.7 141.3,11.2 " />
	<rect x="131.2" y="17.7" class="st0" width="5.1" height="12" />
	<polyline class="st0" points="133.7,8.7 142.3,8.7 145.3,12.7 " />
	<polygon class="st0" points="105.4,29.7 105.4,3.7 109.7,3.7 109.7,10.7 120.7,0.7 125.1,4.7 125.1,29.7 111.9,29.7 111.9,23.7 
	119.6,23.7 119.6,12.7 109.7,21.7 109.7,29.7 " />
	<line class="st0" x1="120" y1="8.7" x2="108.9" y2="19.7" />
	<polygon class="st0" points="83.6,1.7 83.6,7.7 93.7,7.7 95.7,11.7 95.7,21.7 83.6,21.7 82.6,29.7 101.8,29.7 102.8,21.7 99.8,21.7 
	99.8,3.7 " />
	<line class="st0" x1="85.6" y1="26.7" x2="98.8" y2="26.7" />
	<polygon class="st0" points="69.4,2.7 69.9,5.8 74.6,10.4 74.5,29.7 79.5,29.7 79.5,5.7 76.5,2.7 " />
	<polygon class="st0" points="51.2,10.7 53.1,1.2 67.4,2.7 67.4,29.7 62.3,29.7 62.3,12.7 " />
	<polygon class="st0" points="36,26.7 41.1,29.7 46.1,23.7 47.1,29.7 51.2,29.7 49.2,3.7 38,0.7 38,8.7 45.1,11.7 45.1,19.7 " />
	<polygon class="st0" points="10.7,26.7 15.8,29.7 20.8,23.7 21.8,29.7 25.9,29.7 23.9,3.7 12.7,0.7 12.7,8.7 19.8,11.7 19.8,19.7 
	" />
	<polygon class="st0" points="0.6,6.7 1.1,9.8 5.8,14.4 5.7,19.7 10.7,19.7 10.7,9.7 7.7,6.7 " />
	<polygon class="st0" points="25.9,5.7 26.4,8.8 31.1,13.4 31,19.7 36,19.7 36,8.7 33,5.7 " />
	<line class="st0" x1="54.4" y1="6.7" x2="64.2" y2="8.7" />
	<line class="st0" x1="40.5" y1="5.7" x2="46.5" y2="8.7" />
	<line class="st0" x1="14.9" y1="5.7" x2="20.8" y2="8.7" />
</svg>
