<!-- Generator: Adobe Illustrator 23.0.1, SVG Export Plug-In  -->
<svg version="1.1" xmlns="http://www.w3.org/2000/svg" xmlns:xlink="http://www.w3.org/1999/xlink" x="0px" y="0px" width="50px"
	 height="50px" viewBox="0 0 50 50" style="enable-background:new 0 0 50 50;" xml:space="preserve">
<style type="text/css">
	.st0{fill:#3A332D;stroke:#000000;stroke-width:0.5;stroke-miterlimit:10;}
	.st1{fill:#FFECDE;stroke:#000000;stroke-width:0.5;stroke-miterlimit:10;}
	.st2{fill:#FF3333;stroke:#FF5C5C;stroke-width:0.25;stroke-miterlimit:10;}
	.st3{fill:#FF6666;stroke:#000000;stroke-width:0.5;stroke-miterlimit:10;}
</style>
<defs>
</defs>

<path class="st0" d="M27.5,22.4L4.3,20.2l5.3,21.1l21.1,3.2c0,0,16.9-19,16.9-20c0-1.1-7.4-17.9-7.4-17.9L27.5,22.4z"/>
<polygon class="st1" points="6.4,25.5 10.6,40.3 24.3,42.4 28.5,39.2 25.4,23.4 10.6,22.4 "/>
<path class="st2" d="M30.6,43.4L25.4,15c0,0-1.1-16.9,6.3-10.5c0,0-5.3-1.1-5.3,10.5S30.6,43.4,30.6,43.4z"/>
<polygon class="st3" points="5.3,22.4 7.4,21.3 9.5,22.4 6.4,24.5 "/>
<polygon class="st3" points="28.5,40.3 26.4,42.4 29.6,43.4 "/>
</svg>
