<svg id="ej0kpt45dg9a1" xmlns="http://www.w3.org/2000/svg" xmlns:xlink="http://www.w3.org/1999/xlink" viewBox="0 0 1261 720.700000" shape-rendering="geometricPrecision" text-rendering="geometricPrecision"><style><![CDATA[#ej0kpt45dg9a2_to {animation: ej0kpt45dg9a2_to__to 3000ms infinite 1 normal forwards}@keyframes ej0kpt45dg9a2_to__to { 0% {transform: translate(641.200012px,348px);animation-timing-function: cubic-bezier(0,0,0.025000,1)} 50% {transform: translate(240.600009px,-58.177112px);animation-timing-function: cubic-bezier(0,0,0.810000,0.430000)} 100% {transform: translate(641.200012px,348px)} }#ej0kpt45dg9a2_tr {animation: ej0kpt45dg9a2_tr__tr 3000ms linear 1 normal forwards}@keyframes ej0kpt45dg9a2_tr__tr { 0% {transform: rotate(0deg)} 50% {transform: rotate(-315deg)} 100% {transform: rotate(0deg)} }#ej0kpt45dg9a3_to {animation: ej0kpt45dg9a3_to__to 3000ms linear 1 normal forwards}@keyframes ej0kpt45dg9a3_to__to { 0% {transform: translate(641.200012px,448.899991px);animation-timing-function: cubic-bezier(0,0,0.815000,0.465000)} 50% {transform: translate(937.400012px,117.149991px);animation-timing-function: cubic-bezier(0,0,0.815000,0.465000)} 100% {transform: translate(641.200012px,448.899991px)} }#ej0kpt45dg9a3_tr {animation: ej0kpt45dg9a3_tr__tr 3000ms linear 1 normal forwards}@keyframes ej0kpt45dg9a3_tr__tr { 0% {transform: rotate(0deg)} 50% {transform: rotate(675deg)} 100% {transform: rotate(0deg)} }#ej0kpt45dg9a5_to {animation: ej0kpt45dg9a5_to__to 3000ms linear 1 normal forwards}@keyframes ej0kpt45dg9a5_to__to { 0% {transform: translate(227.400002px,180.749992px)} 16.666667% {transform: translate(57.400002px,38.878351px)} 33.333333% {transform: translate(227.400002px,180.749992px)} 50% {transform: translate(57.400002px,38.878351px)} 66.666667% {transform: translate(184.900002px,145.282082px);animation-timing-function: cubic-bezier(0.250000,1,0.250000,1)} 100% {transform: translate(227.400002px,180.749992px)} }]]></style><g id="ej0kpt45dg9a2_to" transform="translate(641.200012,348)"><g id="ej0kpt45dg9a2_tr" transform="rotate(0)"><path id="ej0kpt45dg9a2" d="M444.200000,414.900000L838.200000,414.900000C838.200000,414.900000,837.300000,369.600000,822,354.500000C806.600000,339.400000,751.100000,281.100000,646.800000,281.100000C542.500000,281.100000,484.400000,332.900000,469,345.100000C457.600000,354.200000,444.200000,388.300000,444.200000,414.900000Z" transform="translate(-641.200012,-348)" fill="rgb(239,163,53)" stroke="rgb(85,85,85)" stroke-width="4" stroke-miterlimit="10"/></g></g><g id="ej0kpt45dg9a3_to" transform="translate(641.200012,448.899991)"><g id="ej0kpt45dg9a3_tr" transform="rotate(0)"><polygon id="ej0kpt45dg9a3" points="444.200000,432.900000 444.200000,464.800000 838.200000,464.800000 838.200000,432.900000 749.300000,432.900000 737.400000,449.300000 734.800000,432.900000" transform="translate(-641.200012,-448.849991)" fill="rgb(145,44,44)" stroke="rgb(0,0,0)" stroke-width="2" stroke-miterlimit="10"/></g></g><path id="ej0kpt45dg9a4" d="M444.200000,482L838.200000,482C838.200000,482,837.300000,511.500000,828.800000,532.200000C820.300000,552.900000,473.300000,548.400000,453.600000,532.200000C453.600000,532.200000,444.200000,513,444.200000,482Z" fill="rgb(239,163,53)" stroke="rgb(85,85,85)" stroke-width="4" stroke-miterlimit="10"/><g id="ej0kpt45dg9a5_to" transform="translate(227.400002,180.749992)"><polygon id="ej0kpt45dg9a5" points="344.100000,270.300000 146.300000,91.200000 110.700000,141.100000" transform="translate(-227.400002,-180.749992)" fill="rgb(252,207,63)" stroke="rgb(0,0,0)" stroke-width="1" stroke-miterlimit="10"/></g><polygon id="ej0kpt45dg9a6" points="308.700000,375.600000 41.900000,378.100000 49.500000,438.900000" fill="rgb(252,207,63)" stroke="rgb(0,0,0)" stroke-width="1" stroke-miterlimit="10"/><polygon id="ej0kpt45dg9a7" points="336.800000,544.800000 148.600000,618.200000 179.200000,671.200000" fill="rgb(252,207,63)" stroke="rgb(0,0,0)" stroke-width="1" stroke-miterlimit="10"/><polygon id="ej0kpt45dg9a8" points="938.900000,280.300000 1136.700000,101.200000 1172.300000,151.100000" fill="rgb(252,207,63)" stroke="rgb(0,0,0)" stroke-width="1" stroke-miterlimit="10"/><polygon id="ej0kpt45dg9a9" points="974.300000,385.600000 1241.100000,388.100000 1233.500000,448.900000" fill="rgb(252,207,63)" stroke="rgb(0,0,0)" stroke-width="1" stroke-miterlimit="10"/><polygon id="ej0kpt45dg9a10" points="946.200000,554.800000 1134.400000,628.200000 1103.800000,681.200000" fill="rgb(252,207,63)" stroke="rgb(0,0,0)" stroke-width="1" stroke-miterlimit="10"/><polygon id="ej0kpt45dg9a11" points="1240.700000,56.100000 1212.300000,49.800000 1203.600000,22 1223.300000,0.600000 1251.700000,6.900000 1260.400000,34.700000" fill="rgb(255,255,255)" stroke="rgb(0,0,0)" stroke-width="1" stroke-miterlimit="10"/><polygon id="ej0kpt45dg9a12" points="1119.700000,555.100000 1091.300000,548.800000 1082.600000,521 1102.300000,499.600000 1130.700000,505.900000 1139.400000,533.700000" fill="rgb(255,255,255)" stroke="rgb(0,0,0)" stroke-width="1" stroke-miterlimit="10"/><polygon id="ej0kpt45dg9a13" points="277.700000,720.100000 249.300000,713.800000 240.600000,686 260.300000,664.600000 288.700000,670.900000 297.400000,698.700000" fill="rgb(255,255,255)" stroke="rgb(0,0,0)" stroke-width="1" stroke-miterlimit="10"/><polygon id="ej0kpt45dg9a14" points="37.700000,213.100000 9.300000,206.800000 0.600000,179 20.300000,157.600000 48.700000,163.900000 57.400000,191.700000" fill="rgb(255,255,255)" stroke="rgb(0,0,0)" stroke-width="1" stroke-miterlimit="10"/></svg>