<!-- Generator: Adobe Illustrator 23.0.1, SVG Export Plug-In -->
<svg version="1.1" xmlns="http://www.w3.org/2000/svg" xmlns:xlink="http://www.w3.org/1999/xlink" x="0px" y="0px" viewBox="0 0 1920 1083" style="enable-background:new 0 0 1920 1083;" xml:space="preserve">
	<style type="text/css">
		.st0{fill:url(#SVGID_1_);}
		.st1{fill:url(#SVGID_2_);}
		.st2{opacity:0.64;}
		.st3{opacity:0.48;fill:#B5FBFF;}
		.st4{fill:url(#SVGID_3_);}
		.st5{fill:url(#SVGID_4_);}
	</style>
	<defs>
	</defs>
	<linearGradient id="SVGID_1_" gradientUnits="userSpaceOnUse" x1="-29.4531" y1="857.3781" x2="1412.7278" y2="288.4873">
		<stop offset="1.331947e-07" style="stop-color:#7D3C8B" />
		<stop offset="0.9584" style="stop-color:#371E3D;stop-opacity:0.4" />
	</linearGradient>
	<path class="st0" d="M1467,0c0,0-601,88-613,384s251-10,251-10s46-65,161,22s-85,510-85,510s-73,142,157,158s212,16,212,16H0V0H1467
	z" />
	<linearGradient id="SVGID_2_" gradientUnits="userSpaceOnUse" x1="-103.7823" y1="803.2291" x2="1028.6614" y2="356.519">
		<stop offset="1.331947e-07" style="stop-color:#7D3C8B" />
		<stop offset="0.9584" style="stop-color:#000000;stop-opacity:0.4" />
	</linearGradient>
	<path class="st1" d="M197.8,0C204,14.8,266,612.1,727,730.6c0,0,190,73.1,341-104.7s-45,332.7-45,332.7s0.8,70.1,116.4,107.6
	S0,1066.3,0,1066.3V0H197.8z" />
	<polygon class="st2" points="0,445.7 646,1079.7 0,1080 " />
	<path class="st3" d="M1550,0c0,0-290,318,90,474s57,205,108,360s172,163,172,163V0H1550z" />
	<path class="st3" d="M1671.5,0c0,0-187.7,306.2,58.3,456.4s36.9,197.4,69.9,346.6c33,149.2,111.3,157,111.3,157V0H1671.5z" />
</svg>
