<!-- Generator: Adobe Illustrator 23.0.1, SVG Export Plug-In  -->
<svg version="1.1" xmlns="http://www.w3.org/2000/svg" xmlns:xlink="http://www.w3.org/1999/xlink" x="0px" y="0px" viewBox="0 0 1920 1277" width='100%' height='100%' style="enable-background:new 0 0 1920 1277;" xml:space="preserve">
<style type="text/css">
	.st0{fill:#17111E;}
	.st1{fill:url(#SVGID_1_);}
	.st2{fill:url(#SVGID_2_);}
	.st3{opacity:0.64;}
	.st4{opacity:0.48;fill:#B5FBFF;}
	.st5{opacity:0.18;fill:#B5FBFF;}
	.st6{fill:url(#SVGID_3_);}
	.st7{fill:url(#SVGID_4_);}
</style>
<defs>
</defs>
<g id="Layer_3_copy">
	<polyline class="st0" points="1920,0 0,0 0,1273.5 1920,1273.5 1920,0 	"/>
	<linearGradient id="SVGID_1_" gradientUnits="userSpaceOnUse" x1="-60.4371" y1="966.3292" x2="1439.8831" y2="374.5045">
		<stop  offset="1.331947e-07" style="stop-color:#7D3C8B"/>
		<stop  offset="0.9584" style="stop-color:#371E3D;stop-opacity:0.4"/>
	</linearGradient>
	<path class="st1" d="M1467,0c0,0-601,103.8-613,452.8s251-11.8,251-11.8s46-76.6,161,25.9s-85,601.4-85,601.4s-73,167.4,157,186.3
		c230,18.9,212,18.9,212,18.9H0V0H1467z"/>
	<linearGradient id="SVGID_2_" gradientUnits="userSpaceOnUse" x1="-136.1635" y1="912.1533" x2="1025.1094" y2="454.071">
		<stop  offset="1.331947e-07" style="stop-color:#7D3C8B"/>
		<stop  offset="0.9584" style="stop-color:#000000;stop-opacity:0.4"/>
	</linearGradient>
	<path class="st2" d="M197.8,0C204,17.5,266,721.8,727,861.5c0,0,190,86.2,341-123.4s-45,392.3-45,392.3s0.8,82.7,116.4,126.9
		c115.6,44.2-1139.4,0-1139.4,0V0H197.8z"/>
	<polygon class="st3" points="0,511.7 646,1273.5 0,1273.8 	"/>
	<path class="st4" d="M1550,0c0,0-290,375,90,558.9s57,241.7,108,424.5s172,192.2,172,192.2V0H1550z"/>
	<path class="st5" d="M1671.5,0c0,0-187.7,361,58.3,538.2s36.9,232.8,69.9,408.7c33,176,111.3,185.1,111.3,185.1V0H1671.5z"/>
</g>
</svg>
