<?xml version="1.0" encoding="UTF-8"?>
<svg width="218" height="621" xmlns="http://www.w3.org/2000/svg" xmlns:svg="http://www.w3.org/2000/svg" xmlns:xlink="http://www.w3.org/1999/xlink">
 <title>White Israel Map</title>
 <defs>
  <path id="Outline" d="m7.6611,319.88599c12,-10.797 27.3194,-26.84598 27.3194,-26.84598l9.5966,-11.31101c9.127,-13.436 16.3262,-26.68001 21.7823,-38.041c9.2978,-19.36 13.5215,-33.25 13.5215,-33.25c1.3711,-2.056 0.6865,-5.82701 3.0849,-8.226c2.4004,-2.4 4.7998,-11.996 4.7998,-11.996c11.3106,-27.07699 18.5064,-86.373 18.5064,-86.373c0.687,-1.373 0.343,-4.4573 1.373,-6.1701c1.028,-1.7139 0.685,-3.7706 2.399,-13.3682c1.713,-9.5967 5.826,-5.8262 5.826,-5.8262c4.113,4.7979 7.541,0 9.597,-2.7422c1.589,-2.1191 2.153,-6.8857 2.328,-8.9502c0.051,-0.6084 0.07,-0.9931 0.07,-0.9931c-3.086,-4.1133 -1.028,-6.5127 -0.343,-8.2256c0.685,-1.7139 5.827,-16.7959 5.142,-20.5654c-0.102,-0.5577 -0.129,-1.1299 -0.10001,-1.7002c0,0 6.95601,1.7002 9.69701,1.7002c2.742,0 5.826,-0.6856 7.884,-0.6856c2.056,0 7.198,-2.3994 9.25299,-1.0283c2.058,1.3711 5.82801,5.1416 5.82801,5.1416c0,0 2.74299,1.0283 5.141,1.0283c2.4,0 4.799,-1.3711 6.513,-2.3994c0.48,-0.2871 1.346,-0.7158 2.362,-1.2275c2.60601,-1.3145 6.247,-3.2129 7.234,-4.9395c1.371,-2.3975 4.113,-8.2256 3.77,-11.3105c-0.34199,-3.084 1.71401,-11.9952 2.058,-13.0235c0.342,-1.0273 1.713,-6.1689 4.112,-3.084c2.399,3.084 4.112,4.1123 6.16901,4.1123c2.056,0 8.91099,-0.3418 6.51399,2.7422c-2.401,3.085 -2.401,5.4844 -2.05699,6.8555c0.34199,1.3711 1.37098,3.7705 -0.34401,9.5967c-1.71401,5.8261 -2.05699,15.081 -2.399,16.4521c-0.34101,1.3692 -2.056,15.7666 -2.056,15.7666l0.03199,5.0879c0.442,0.2666 0.90201,0.8057 1.33901,1.7666c1.714,3.7705 4.11301,9.2549 2.741,14.0518c0,0 2.401,0.3437 2.05799,2.7431c-0.34298,2.3985 -2.05799,12.3389 -2.05799,12.3389c0,0 -0.34099,2.0557 1.029,2.0557l0,0.0029c1.371,0 4.799,1.7131 -0.343,3.4271c-5.14101,1.715 -4.8,0 -6.855,3.427c-2.057,3.428 -3.77,2.742 -3.77,6.169c0,3.428 1.028,10.284 -0.343,12.339c-1.372,2.056 -1.028,7.883 -1.02899,9.598c0,0 0.68599,11.31 -0.34301,15.07901c-0.582,2.13699 -0.60701,4.267 -0.464,6.21699c0.112,1.49001 0.31799,2.877 0.466,4.064c0.342,2.74299 2.399,15.082 1.713,18.166l0.005,0.003c-0.68501,3.084 -5.483,20.222 -5.826,23.65c-0.34399,3.427 -0.687,9.253 0.343,11.99701c1.026,2.74099 0,9.59599 -0.68699,13.36699c0,0 1.71299,6.51201 1.71299,8.91101c0,2.39799 0,8.91099 0,8.91099l-1.37001,3.427l-10.87899,109.042c0,0 -3.18399,9.203 -4.55401,13.31601c-1.37199,4.113 0.34201,11.311 -4.45599,15.08099c-4.798,3.771 -6.51201,5.14099 -7.198,9.25501c-0.686,4.112 0.00099,10.28198 -3.77101,13.026c0,0 -5.14,13.02298 -5.48298,16.45099c0,0 -7.19701,16.109 -8.56801,19.88c-1.371,3.76901 -7.54,22.27899 -6.17,26.392c1.371,4.11301 3.771,7.54001 1.371,12.33899c-2.40001,4.798 -5.48401,11.996 -3.084,20.56601c2.399,8.56799 3.427,12.33801 1.028,14.73797c-2.399,2.39905 -9.253,17.48102 -10.282,20.90802c-1.028,3.42798 -2.4,15.081 -2.741,17.823c-0.343,2.74103 -1.029,7.539 -2.743,10.96802c0,0 -5.141,12.68201 -5.141,17.479c0,4.79798 -2.742,11.99598 -4.455,15.42401l-2.47,6.78101c-1.559,0.16095 -3.358,1.95996 -4.388,4.53095c-0.558,1.39703 -1.401,2.62304 -2.461,3.70202c0,0 -6.7916,-7.47302 -6.4488,-12.27099c0.3428,-4.79902 0.6855,-10.28302 -0.6856,-13.70899c-1.372,-3.42901 -2.7431,-10.284 -2.7431,-12.34003l-11.9951,-35.98901c0,0 -19.5371,-62.03796 -22.2784,-65.12299c0,0 -2.833,-2.09197 -5.3769,-4.695c-2.4981,-2.556 -4.7207,-5.603 -3.7022,-7.64298c2.0567,-4.112 2.0567,-6.68301 0,-10.28302c-2.0566,-3.59799 -2.5712,-8.73999 -2.5712,-12.33899c0,0 -11.8243,-36.50299 -15.9375,-44.21399l-24.7491,-77.00802z"/>
  <clipPath id="clip1">
   <use xlink:href="#Outline" id="svg_1"/>
  </clipPath>
  <clipPath id="t">
   <path d="m2,109l150,0l0,75l-150,-75zl150,150l-150,0l0,-150zl-150,150l0,-75l150,-75zl-150,0l150,0z" id="svg_2"/>
  </clipPath>
  <clipPath id="Canton">
   <rect x="-148" y="34" height="150" width="300" id="svg_3"/>
  </clipPath>
 </defs>
 <g>
  <title>Layer 1</title>
  <use x="0" y="21" xlink:href="#Outline" fill="#ffffff" stroke-width="3" stroke="#000000" id="svg_35"/>
 </g>
</svg>