<!-- Generator: Adobe Illustrator 23.0.1, SVG Export Plug-In -->
<svg version="1.1" xmlns="http://www.w3.org/2000/svg" xmlns:xlink="http://www.w3.org/1999/xlink" x="0px" y="0px" viewBox="0 0 1366 768" style="enable-background:new 0 0 1366 768;" xml:space="preserve">
	<style type="text/css">
		.st0{fill:#0C1F36;}
		.st1{opacity:0.5;fill:#55CBFF;}
		.st2{fill:#B5FBFF;}
		.st3{fill:#79D879;}
		.st4{fill:#A6E8FF;}
		.st5{fill:#FF1515;}
		.st6{fill:#66CC33;}
		.st7{fill:#DBDBDB;}
		.st8{fill:#BFBFBF;stroke:#777777;stroke-miterlimit:10;}
		.st9{fill:#0C1F36;stroke:#777777;stroke-width:5;stroke-miterlimit:10;}
		.st10{fill:#FF9019;}
	</style>
	<defs>
	</defs>
	<rect class="st0" width="1366" height="768" />
	<path class="st1" d="M0,233c0,0,560,216,566.7-233H845c0,0,92,393.4,521,338.2v159.3c0,0-399.8-57.5-492.9,270.5H540.7
	c0,0-110.7-481-540.7-225V233z" />
	<circle class="st2" cx="683" cy="384" r="384" />
	<path class="st3" d="M625.8,764.8c0,0-82.8-21.8-101.8-154.8c-19-133,57-10,52-183S313,281.8,313,281.8l0,0
	c-9.1,32.8-14,67.4-14,103.2C299,577.7,440.9,737.2,625.8,764.8z" />
	<path class="st3" d="M574.3,15.6C448.2,52.8,349,152.9,313.3,279.7C320.7,273.4,454,161.5,626,179C803,197,729.6-12.8,574.3,15.6z" />
	<path class="st3" d="M1066,387.2l-44-23.2c0,0-168-62-156,84c12,146-69.4,249.3,25.8,257.7C995.9,637.7,1064.9,520.5,1066,387.2z" />
	<path class="st3" d="M942.9,101.3c0,0-148.9-7.3-132.9,85.7c16,93,228,91.4,256,175.7c0.2,0.5,0.3,1,0.5,1.5
	C1061.2,260.3,1014.7,167.4,942.9,101.3z" />
	<polygon class="st4" points="166,95 201.4,65.6 174,101 201.4,136.4 166,108 130.6,136.4 158,101 130.6,65.6 " />
	<polygon class="st4" points="1225,655.8 1268.9,669.6 1224.3,665.7 1209.4,707.9 1214.1,662.8 1171.1,648.4 1215.7,652.3 
	1230.6,610.1 " />
	<polygon class="st5" points="597.7,113.5 573.6,67.4 564.4,101.5 584.8,90.9 596.8,114 " />
	<polygon class="st5" points="433.4,330.8 381.9,323.5 404.3,350.9 407.5,328.1 433.3,331.7 " />
	<polygon class="st5" points="987.2,584.6 1028.3,616.5 993,619.5 1007.1,601.3 986.6,585.4 " />
	<polygon class="st5" points="952.7,207.5 1000.3,186.5 986.2,219 976.9,197.9 953.1,208.4 " />
	<path class="st6" d="M1193.7,89.9c0.2,1.4,1.4,9.9,1.4,9.9s2.5-5.4,4.3-5.6c3.6-0.5,7.6-3.3,7.2-6.1s-3.6-4.5-7.1-4
	C1195.9,84.6,1193.3,87.2,1193.7,89.9z" />
	<path class="st6" d="M1230,89c0,1.4,0,10,0,10s-3.2-5-5-5c-3.6,0-8-2.2-8-5s2.9-5,6.5-5S1230,86.2,1230,89z" />
	<ellipse class="st7" cx="1209.5" cy="119.5" rx="80.5" ry="24.5" />
	<path class="st1" d="M1211.5,94c19.3,0,36.9,2.1,50.8,5.5c0.5-1.1,0.7-2.3,0.7-3.5c0-11-20.4-20-45.5-20s-45.5,9-45.5,20
	c0,0.4,0,0.8,0.1,1.1C1183.7,95.1,1197.2,94,1211.5,94z" />
	<ellipse class="st8" cx="1212" cy="125" rx="40.5" ry="15.5" />
	<circle class="st9" cx="1191" cy="114" r="6" />
	<circle class="st10" cx="1188" cy="107" r="6" />
</svg>
