<!-- Generator: Adobe Illustrator 23.0.1, SVG Export Plug-In -->
<svg version="1.1" xmlns="http://www.w3.org/2000/svg" xmlns:xlink="http://www.w3.org/1999/xlink" x="0px" y="0px" viewBox="0 0 428.5 675" style="enable-background:new 0 0 428.5 675;" xml:space="preserve">
	<style type="text/css">
		.st0{fill:#0C1F36;}
		.st1{fill:#A6E8FF;}
		.st2{fill:#B5FBFF;}
		.st3{fill:#79D879;}
		.st4{fill:#FF1515;}
		.st5{fill:#66CC33;}
		.st6{fill:#DBDBDB;}
		.st7{opacity:0.5;fill:#55CBFF;}
		.st8{fill:#BFBFBF;stroke:#777777;stroke-miterlimit:10;}
		.st9{fill:#0C1F36;stroke:#777777;stroke-width:5;stroke-miterlimit:10;}
		.st10{fill:#FF9019;stroke:#FFD0A6;stroke-miterlimit:10;}
		.st11{fill:none;stroke:#FFD0A6;stroke-width:11;stroke-miterlimit:10;}
	</style>
	<defs>
	</defs>
	<rect class="st0" width="425" height="675" />
	<path class="st1" d="M425.9,44.5c0,0-263.8,136.2-276,268.1c-12.2,131.9,239.6,361.9,239.6,361.9l35-154
	c0,0-181.7-150.2-177.8-227.5c3.9-77.3,181.8-201.4,181.8-201.4" />
	<path class="st2" d="M426.6,491.7C324.7,440.5,190,420.3,48.3,443.5c-16.4,2.7-32.5,5.9-48.3,9.6l0.5,221.4h424L426.6,491.7z" />
	<path class="st3" d="M0.2,620.3c0.3,0,0.6-0.1,0.9-0.1c194.5-17.9,138.1-142.7-0.9-149.1" />
	<path class="st3" d="M424.5,491.8c-7.9-4-16.1-7.7-24.4-11.3c0,0-194.2,25-159.5,105.6c18,42,101.3,48.9,183.7,56.4" />
	<polygon class="st4" points="86.9,534.8 56.4,476.5 44.6,519.7 70.5,506.2 85.8,535.4 " />
	<polygon class="st4" points="355.5,562.7 403.2,492.1 412.1,549.3 380.7,528.3 356.8,563.6 " />
	<polygon class="st1" points="75,185.2 99.3,192.9 74.6,190.7 66.3,214 69,189.1 45.1,181.2 69.8,183.3 78.1,160 " />
	<polygon class="st1" points="378.9,315.3 402.7,306.4 381.9,319.9 389.8,343.3 376.5,322.1 352.8,330.4 373.6,316.9 365.7,293.5 " />
	<path class="st5" d="M113.1,67.8c0.2,1.1,1.1,7.7,1.1,7.7s1.9-4.2,3.3-4.4c2.8-0.4,5.9-2.6,5.6-4.7c-0.3-2.1-2.8-3.5-5.6-3.1
	S112.8,65.6,113.1,67.8z" />
	<path class="st5" d="M141.5,66.9c0,1.1,0,7.8,0,7.8s-2.5-3.9-3.9-3.9c-2.8,0-6.3-1.7-6.3-3.9c0-2.1,2.3-3.9,5.1-3.9
	S141.5,64.8,141.5,66.9z" />
	<ellipse class="st6" cx="127" cy="91.5" rx="62.9" ry="19.1" />
	<path class="st7" d="M127.1,70.9c15.1-0.1,28.9,1.5,39.7,4.1c0.4-0.9,0.5-1.8,0.5-2.7c0-8.6-16-15.5-35.6-15.4
	c-19.6,0.1-35.5,7.1-35.5,15.7c0,0.3,0,0.6,0.1,0.9C105.4,71.8,115.9,70.9,127.1,70.9z" />
	<ellipse class="st8" cx="128.2" cy="95.8" rx="31.7" ry="12.1" />
	<ellipse class="st9" cx="128.2" cy="88" rx="4.7" ry="4.7" />
	<ellipse class="st10" cx="128.2" cy="82.6" rx="4.7" ry="4.7" />
	<path class="st11" d="M219.2,257.7" />
</svg>
